<?xml version="1.0" encoding="iso-8859-1"?>
<!-- Generator: Adobe Illustrator 19.0.0, SVG Export Plug-In . SVG Version: 6.00 Build 0)  -->
<svg version="1.1" id="Layer_1" xmlns="http://www.w3.org/2000/svg" xmlns:xlink="http://www.w3.org/1999/xlink" x="0px" y="0px"
	 viewBox="0 0 337.559 337.559" style="enable-background:new 0 0 337.559 337.559;" xml:space="preserve">
<g>
	<g>
		<path style="fill:#61B4E4;" d="M201.059,67.703c0,13.337,10.912,24.248,24.248,24.248h80.504
			c13.336,0,24.248-10.911,24.248-24.248v-28.33c0-13.337-10.912-24.248-24.248-24.248h-80.504
			c-13.336,0-24.248,10.911-24.248,24.248V67.703z"/>
		<path style="fill:#005CB9;" d="M201.059,144.53c0,13.337,10.912,24.248,24.248,24.248h80.504
			c13.336,0,24.248-10.911,24.248-24.248v-28.331c0-13.336-10.912-24.248-24.248-24.248h-80.504
			c-13.336,0-24.248,10.912-24.248,24.248V144.53z"/>
		<path style="fill:#FEE050;" d="M201.059,221.357c0,13.336,10.912,24.248,24.248,24.248h80.504
			c13.336,0,24.248-10.912,24.248-24.248v-28.331c0-13.336-10.912-24.248-24.248-24.248h-80.504
			c-13.336,0-24.248,10.912-24.248,24.248V221.357z"/>
		<path style="fill:#AF8400;" d="M201.059,298.184c0,13.337,10.912,24.248,24.248,24.248h80.504
			c13.336,0,24.248-10.911,24.248-24.248v-28.33c0-13.337-10.912-24.248-24.248-24.248h-80.504
			c-13.336,0-24.248,10.911-24.248,24.248V298.184z"/>
		<path style="fill:#E8E8E8;" d="M259.316,35.36c0-13.75-11.25-25-25-25H32.5c-13.75,0-25,11.25-25,25v266.838
			c0,13.75,11.25,25,25,25h201.816c13.75,0,25-11.25,25-25L259.316,35.36L259.316,35.36z"/>
		<g>
			<path style="fill:#C3C6C8;" d="M66.891,198.701h133.035c-3.889-18.288-15.125-33.858-30.472-43.474
				c10.765-9.798,17.523-23.924,17.523-39.628c0-29.586-23.984-53.57-53.57-53.57c-29.584,0-53.57,23.984-53.57,53.57
				c0,15.704,6.758,29.83,17.524,39.628C82.015,164.843,70.779,180.413,66.891,198.701z"/>
		</g>
	</g>
	<path style="fill:#071C2C;" d="M66.891,206.201h133.035c2.263,0,4.405-1.021,5.829-2.78s1.978-4.066,1.507-6.279
		c-3.595-16.907-13.071-32.176-26.474-43.02c8.782-10.818,13.689-24.438,13.689-38.522c0-33.674-27.396-61.07-61.07-61.07
		s-61.07,27.396-61.07,61.07c0,14.084,4.908,27.704,13.689,38.522c-13.402,10.844-22.878,26.112-26.472,43.02
		c-0.471,2.213,0.083,4.521,1.507,6.279C62.486,205.18,64.628,206.201,66.891,206.201z M101.343,161.583
		c1.988-1.245,3.279-3.35,3.488-5.687c0.209-2.337-0.687-4.637-2.422-6.216c-9.579-8.718-15.072-21.14-15.072-34.081
		c0-25.403,20.667-46.07,46.07-46.07s46.07,20.667,46.07,46.07c0,12.941-5.494,25.363-15.072,34.081
		c-1.735,1.579-2.631,3.879-2.422,6.216s1.5,4.441,3.488,5.687c11.154,6.989,19.735,17.49,24.42,29.618H76.923
		C81.608,179.073,90.189,168.571,101.343,161.583z M337.559,67.703v-28.33c0-17.506-14.242-31.748-31.748-31.748h-54.572
		c-4.932-3.021-10.727-4.765-16.922-4.765H32.5C14.58,2.86,0,17.439,0,35.36v266.838c0,17.921,14.58,32.5,32.5,32.5h201.816
		c6.196,0,11.992-1.745,16.925-4.767h54.569c17.506,0,31.748-14.242,31.748-31.748v-28.33c0-9.715-4.391-18.42-11.287-24.248
		c6.896-5.828,11.287-14.533,11.287-24.248v-28.331c0-9.715-4.391-18.42-11.287-24.248c6.896-5.828,11.287-14.533,11.287-24.248
		V116.2c0-9.715-4.391-18.42-11.287-24.248C333.168,86.123,337.559,77.418,337.559,67.703z M251.816,302.198
		c0,9.649-7.851,17.5-17.5,17.5H32.5c-9.649,0-17.5-7.851-17.5-17.5V35.36c0-9.649,7.851-17.5,17.5-17.5h201.816
		c9.649,0,17.5,7.851,17.5,17.5V302.198z M322.559,298.184c0,9.235-7.513,16.748-16.748,16.748h-41.595
		c1.673-3.912,2.601-8.216,2.601-12.733v-49.093h38.994c9.235,0,16.748,7.513,16.748,16.748V298.184z M322.559,221.357
		c0,9.235-7.513,16.748-16.748,16.748h-38.994v-61.827h38.994c9.235,0,16.748,7.513,16.748,16.748V221.357z M322.559,144.53
		c0,9.235-7.513,16.748-16.748,16.748h-38.994V99.451h38.994c9.235,0,16.748,7.513,16.748,16.748V144.53z M322.559,67.703
		c0,9.235-7.513,16.748-16.748,16.748h-38.994V35.36c0-4.518-0.929-8.822-2.602-12.735h41.596c9.235,0,16.748,7.513,16.748,16.748
		L322.559,67.703L322.559,67.703z M40.413,245.024h185.991v-15H40.413V245.024z M63.83,274.688h139.156v-15H63.83V274.688z"/>
</g>
<g>
</g>
<g>
</g>
<g>
</g>
<g>
</g>
<g>
</g>
<g>
</g>
<g>
</g>
<g>
</g>
<g>
</g>
<g>
</g>
<g>
</g>
<g>
</g>
<g>
</g>
<g>
</g>
<g>
</g>
</svg>
