<svg version="1.1" id="ecommerce_1_" xmlns="http://www.w3.org/2000/svg" x="0" y="0" viewBox="0 0 115 115" style="enable-background:new 0 0 115 115" xml:space="preserve"><style>.st3{fill:#ff6f69}.st7{fill:#71a58a}</style><g id="terms__x26__conditions_1_"><path d="M73.827 0H12.482a6.884 6.884 0 0 0-6.884 6.884v86.887a6.884 6.884 0 0 0 6.884 6.884h61.345a6.884 6.884 0 0 0 6.884-6.884V6.884A6.884 6.884 0 0 0 73.827 0z" style="fill:#c9b77d"/><path d="M36.172 19.346a6.884 6.884 0 0 0-6.884 6.884v74.424h44.54a6.884 6.884 0 0 0 6.884-6.884V19.346h-44.54z" style="fill:#aa9865"/><path d="M94.547 14.345H41.173a6.884 6.884 0 0 0-6.884 6.884v86.887A6.884 6.884 0 0 0 41.173 115h61.345a6.884 6.884 0 0 0 6.884-6.884V27.884L94.547 14.345z" style="fill:#ffeead"/><path d="M94.547 14.345v6.654a6.884 6.884 0 0 0 6.884 6.884h7.97L94.547 14.345z" style="fill:#96ceb4"/><path class="st3" d="M97.754 42.349H47.266c-.917 0-1.667.75-1.667 1.667s.75 1.667 1.667 1.667h50.488c.917 0 1.667-.75 1.667-1.667s-.75-1.667-1.667-1.667zM97.754 53.304H47.266c-.917 0-1.667.75-1.667 1.667s.75 1.667 1.667 1.667h50.488c.917 0 1.667-.75 1.667-1.667s-.75-1.667-1.667-1.667zM97.754 64.259H47.266c-.917 0-1.667.75-1.667 1.667s.75 1.667 1.667 1.667h50.488c.917 0 1.667-.75 1.667-1.667s-.75-1.667-1.667-1.667zM97.754 75.214H47.266c-.917 0-1.667.75-1.667 1.667s.75 1.667 1.667 1.667h50.488c.917 0 1.667-.75 1.667-1.667s-.75-1.667-1.667-1.667zM97.754 86.168H47.266c-.917 0-1.667.75-1.667 1.667s.75 1.667 1.667 1.667h50.488c.917 0 1.667-.75 1.667-1.667 0-.916-.75-1.667-1.667-1.667zM97.754 97.123H47.266c-.917 0-1.667.75-1.667 1.667s.75 1.667 1.667 1.667h50.488c.917 0 1.667-.75 1.667-1.667s-.75-1.667-1.667-1.667z"/><g><path class="st7" d="M60.757 25.966c-.359-.462-.874-.48-1.371-.48h-4.267c-.479 0-.959 0-1.319.446-.154.154-.274.412-.274.77 0 .188.017.548.308.84.377.412.823.395 1.285.395h.634v7.728c0 .583 0 1.217.548 1.68.36.292.754.343.994.343 1.457 0 1.474-1.405 1.474-2.109v-7.643h.652c.463 0 .959-.018 1.319-.463a1.23 1.23 0 0 0 .257-.772c0-.203-.035-.476-.24-.735zM74.268 35.461c-.137-.085-.291-.137-.428-.223a.69.69 0 0 1-.291-.308c.891-1.25 1.045-1.457 1.045-1.936 0-.703-.566-1.217-1.234-1.217-.737 0-1.062.582-1.302 1.028l-1.028-1.508c.891-.788 1.954-1.732 1.954-3.188 0-1.439-1.165-2.656-3.17-2.656-.377 0-1.268 0-2.074.634-.977.755-.994 1.783-.994 2.092 0 1.114.446 1.85 1.028 2.672-.754.635-1.971 1.663-1.971 3.497 0 1.457.754 2.177 1.183 2.502.891.702 1.799.772 2.399.772 1.285 0 1.851-.428 2.382-.84.274.325.686.84 1.731.84 1.217 0 1.319-.977 1.319-1.183-.001-.087-.001-.653-.549-.978zm-4.833.068c-.6 0-1.114-.48-1.114-1.234 0-.772.411-1.165.771-1.49l1.388 2.09c-.103.154-.411.634-1.045.634zm.36-6.117c-.411-.652-.599-.977-.599-1.32 0-.412.257-.702.668-.702.411 0 .719.257.719.719 0 .583-.445.976-.788 1.303zM86.408 32.856c-.823 0-1.217.463-1.371.857-.069.206-.086.428-.103.652-.034.308-.085.925-.908.925-.805 0-.942-.65-.977-.839-.12-.548-.12-1.972-.12-2.64 0-.377 0-2.33.086-2.982.052-.29.154-1.028 1.063-1.028.84 0 .874.583.926 1.217.017.327.051.652.308.927.171.188.497.359 1.011.359 1.474 0 1.491-1.37 1.491-1.85 0-.908-.188-1.885-1.285-2.537-.617-.359-1.354-.582-2.588-.582-.532 0-1.697.033-2.657.72-1.37 1.01-1.405 2.553-1.405 5.517 0 3.634.257 4.714 1.474 5.519.308.205 1.045.652 2.673.652 1.114 0 2.245-.24 3.017-1.028.548-.567.822-1.337.822-2.125-.001-1.048-.48-1.734-1.457-1.734z"/></g></g></svg>